<svg width="52" height="48" viewBox="0 0 52 48" fill="none" xmlns="http://www.w3.org/2000/svg">
<path d="M19.34 47.1526V43.5422C19.34 40.2386 22.018 37.5605 25.3217 37.5605H31.8189C32.1688 37.5605 32.4546 37.2757 32.4557 36.9258L32.4562 36.7384C32.4567 36.5647 32.3935 36.3941 32.271 36.2708C32.1506 36.1499 31.9902 36.0832 31.8197 36.0832H13.1506C9.84689 36.0832 7.16882 33.4051 7.16882 30.1015V29.8981C7.16882 26.5944 9.84689 23.9163 13.1506 23.9163H37.941C38.2928 23.9163 38.5778 23.6313 38.5778 23.2795V23.173C38.5778 22.8212 38.2928 22.5362 37.941 22.5362H15.9621C14.3748 22.5362 12.8797 21.921 11.752 20.804C10.6244 19.687 9.99529 18.1977 9.98034 16.6105L9.97981 16.5435C9.96486 14.9354 10.5798 13.4205 11.712 12.2779C12.8439 11.1353 14.3532 10.506 15.9616 10.506H32.2035C32.5534 10.506 32.8392 10.2212 32.8403 9.87128V9.81843C32.8408 9.65829 32.7874 9.50082 32.6812 9.38098C32.5584 9.24246 32.3871 9.16559 32.2037 9.16559H27.7892C24.4855 9.16559 21.8075 6.48752 21.8075 3.18384V0.846605C21.8075 0.378997 22.1865 0 22.6541 0H26.306C26.7737 0 27.1527 0.378997 27.1527 0.846605V3.18358C27.1527 3.53535 27.4377 3.8204 27.7895 3.8204H32.204C33.8051 3.8204 35.3096 4.44494 36.4402 5.57873C37.5708 6.71252 38.1908 8.2189 38.186 9.82003V9.83498C38.1812 11.4294 37.5631 12.9689 36.436 14.0968C35.3059 15.2279 33.8025 15.8509 32.204 15.8509H15.9784C15.8038 15.8509 15.6327 15.9149 15.5097 16.0391C15.3891 16.1608 15.3231 16.3222 15.3247 16.4936L15.3253 16.5606C15.3285 16.9075 15.6149 17.1913 15.9618 17.1913H37.9549C41.2508 17.1913 43.9227 19.8632 43.9227 23.1591V23.2798C43.9227 26.5835 41.2447 29.2615 37.941 29.2615H13.1506C12.7988 29.2615 12.5138 29.5466 12.5138 29.8983V30.1017C12.5138 30.4535 12.7988 30.7385 13.1506 30.7385H31.7673C33.3714 30.7385 34.9208 31.3594 36.0537 32.4947C37.1857 33.6288 37.8065 35.1362 37.8017 36.7384L37.8011 36.9424C37.7963 38.5405 37.1689 40.0419 36.0348 41.1684C34.9034 42.2924 33.3621 42.9062 31.7671 42.9062H25.3223C24.9705 42.9062 24.6854 43.1913 24.6854 43.543V47.1534C24.6854 47.621 24.3064 48 23.8388 48H20.1868C19.7192 48 19.3402 47.621 19.3402 47.1534L19.34 47.1526Z" fill="#0B0A0C"/>
<path d="M45.0667 18.8085L45.0549 18.7909C44.7365 18.3065 44.8708 17.6558 45.3552 17.3374L47.5382 15.9017C48.0226 15.5833 48.6733 15.7176 48.9917 16.202L49.0034 16.2196C49.3219 16.704 49.1876 17.3547 48.7032 17.6731L46.5202 19.1088C46.0358 19.4272 45.3851 19.293 45.0667 18.8085Z" fill="#0B0A0C"/>
<path d="M48.9919 30.6948L49.0037 30.6772C49.3221 30.1927 49.1879 29.542 48.7034 29.2236L46.5205 27.788C46.036 27.4696 45.3853 27.6038 45.0669 28.0882L45.0552 28.1058C44.7368 28.5903 44.871 29.241 45.3554 29.5594L47.5384 30.995C48.0228 31.3134 48.6735 31.1792 48.9919 30.6948Z" fill="#0B0A0C"/>
<path d="M50.2056 22.4395H47.5932C47.0134 22.4395 46.5435 22.9094 46.5435 23.4892V23.51C46.5435 24.0897 47.0134 24.5597 47.5932 24.5597H50.2056C50.7853 24.5597 51.2553 24.0897 51.2553 23.51V23.4892C51.2553 22.9094 50.7853 22.4395 50.2056 22.4395Z" fill="#0B0A0C"/>
<path d="M2.25213 22.9296L2.26372 22.912C2.58195 22.4281 3.23327 22.2935 3.71718 22.6118L5.90013 24.0473C6.38404 24.3656 6.51879 25.017 6.20041 25.5012L6.18882 25.5188C5.87059 26.0027 5.21927 26.1372 4.73536 25.819L2.55241 24.3834C2.0685 24.0652 1.93375 23.4137 2.25213 22.9296Z" fill="#0B0A0C"/>
<path d="M2.55266 35.933L4.7356 34.4974C5.21951 34.1792 5.87106 34.3136 6.18944 34.7977L6.20102 34.8153C6.51925 35.2992 6.38487 35.9508 5.90074 36.2692L3.7178 37.7047C3.23389 38.023 2.58234 37.8886 2.26396 37.4044L2.25237 37.3868C1.93414 36.9029 2.06852 36.2514 2.55266 35.933Z" fill="#0B0A0C"/>
<path d="M3.66213 29.1504H1.04972C0.469974 29.1504 0 29.6204 0 30.2001V30.2209C0 30.8007 0.469974 31.2706 1.04972 31.2706H3.66213C4.24187 31.2706 4.71184 30.8007 4.71184 30.2209V30.2001C4.71184 29.6204 4.24187 29.1504 3.66213 29.1504Z" fill="#0B0A0C"/>
</svg>
