<svg width="38" height="46" viewBox="0 0 38 46" fill="none" xmlns="http://www.w3.org/2000/svg">
<path d="M29.1875 4.3125C29.1875 1.93164 27.2559 0 24.875 0C22.4941 0 20.5625 1.93164 20.5625 4.3125C20.5625 6.69336 22.4941 8.625 24.875 8.625C27.2559 8.625 29.1875 6.69336 29.1875 4.3125ZM11.7309 15.7676C12.6203 14.8781 13.8332 14.375 15.1 14.375C15.2707 14.375 15.4414 14.384 15.6031 14.402L12.8 22.8203C11.9645 25.3359 12.9527 28.1031 15.2078 29.5137L22.9523 34.3563L20.6703 42.3344C20.2301 43.8617 21.1195 45.452 22.6469 45.8922C24.1742 46.3324 25.7645 45.443 26.2047 43.9156L28.7832 34.8953C29.3133 33.0445 28.5496 31.068 26.9234 30.0527L21.8203 26.8633L24.5965 19.4602L25.0547 20.5652C26.4023 23.7816 29.5379 25.875 33.0238 25.875H34.9375C36.5277 25.875 37.8125 24.5902 37.8125 23C37.8125 21.4098 36.5277 20.125 34.9375 20.125H33.0238C31.8648 20.125 30.8137 19.4242 30.3734 18.3551L29.8074 17.0074C28.4957 13.8539 25.8453 11.4461 22.575 10.4398L18.1996 9.09219C17.2023 8.78672 16.1602 8.625 15.109 8.625C12.3238 8.625 9.64648 9.73008 7.67891 11.7066L5.59453 13.782C4.47148 14.9051 4.47148 16.7289 5.59453 17.852C6.71758 18.975 8.54141 18.975 9.66445 17.852L11.7398 15.7766L11.7309 15.7676ZM8.63125 31.625H3.3125C1.72227 31.625 0.4375 32.9098 0.4375 34.5C0.4375 36.0902 1.72227 37.375 3.3125 37.375H9.56562C11.2727 37.375 12.818 36.3688 13.5098 34.8145L14.543 32.4875L13.6895 31.9484C12.1172 30.9691 10.9492 29.5406 10.2844 27.9145L8.63125 31.625Z" fill="#0B0A0C"/>
</svg>
