<svg width="35" height="46" viewBox="0 0 35 46" fill="none" xmlns="http://www.w3.org/2000/svg">
<path d="M28.933 4.00687C29.4553 2.77601 29.0658 1.33851 27.9945 0.547883C26.9233 -0.242742 25.4625 -0.170867 24.4621 0.709602L1.79801 20.8346C0.912694 21.6252 0.59398 22.892 1.01008 24.0061C1.42618 25.1201 2.48856 25.8748 3.66603 25.8748H13.5373L6.72923 41.9928C6.20689 43.2237 6.59643 44.6612 7.66767 45.4518C8.7389 46.2424 10.1997 46.1705 11.2001 45.2901L33.8642 25.1651C34.7495 24.3744 35.0682 23.1076 34.6521 21.9936C34.236 20.8795 33.1825 20.1338 31.9962 20.1338H22.1249L28.933 4.00687Z" fill="white"/>
</svg>
