<svg width="42" height="42" viewBox="0 0 42 42" fill="none" xmlns="http://www.w3.org/2000/svg">
<path d="M31.6555 5.78037C32.7785 4.65732 32.7785 2.8335 31.6555 1.71045C30.5324 0.587402 28.7086 0.587402 27.5856 1.71045L15.25 14.055L10.093 8.89795C8.96995 7.7749 7.14612 7.7749 6.02307 8.89795C4.90002 10.021 4.90002 11.8448 6.02307 12.9679L13.2106 20.1554C14.3336 21.2784 16.1574 21.2784 17.2805 20.1554L31.6555 5.78037ZM40.2805 17.2804C41.4035 16.1573 41.4035 14.3335 40.2805 13.2105C39.1574 12.0874 37.3336 12.0874 36.2106 13.2105L15.25 34.18L5.78049 24.7194C4.65745 23.5964 2.83362 23.5964 1.71057 24.7194C0.587524 25.8425 0.587524 27.6663 1.71057 28.7894L13.2106 40.2894C14.3336 41.4124 16.1574 41.4124 17.2805 40.2894L40.2805 17.2894V17.2804Z" fill="#0B0A0C"/>
</svg>
