<svg width="40" height="46" viewBox="0 0 40 46" fill="none" xmlns="http://www.w3.org/2000/svg">
<path d="M14.1031 0.484984C14.7937 -0.170875 15.8649 -0.161891 16.5554 0.493968C18.9989 2.82092 21.2919 5.32756 23.4344 8.04084C24.4082 6.74709 25.5148 5.33655 26.71 4.18655C27.4094 3.5217 28.4895 3.5217 29.1889 4.19553C32.2521 7.16037 34.8461 11.0776 36.6698 14.7971C38.467 18.4627 39.6622 22.2092 39.6622 24.8506C39.6622 36.3147 30.8268 45.9998 19.8311 45.9998C8.71152 45.9998 0 36.3057 0 24.8416C0 21.3916 1.57587 17.178 4.01934 13.0092C6.48938 8.77756 9.97753 4.36623 14.1031 0.484984ZM19.9816 37.3748C22.2215 37.3748 24.2046 36.7459 26.0726 35.4881C29.7998 32.8467 30.8002 27.5639 28.5603 23.4131C28.3125 22.91 28.0646 22.4069 27.6927 21.9037L23.213 27.1865C23.213 27.1865 16.0065 17.8787 15.5019 17.2498C11.7836 21.9037 9.91556 24.5451 9.91556 27.5639C9.91556 33.7272 14.3953 37.3748 19.9816 37.3748Z" fill="#0B0A0C"/>
</svg>
