<svg width="40" height="48" viewBox="0 0 40 48" fill="none" xmlns="http://www.w3.org/2000/svg">
<path d="M30.5 4.5C30.5 2.01562 28.4844 0 26 0C23.5156 0 21.5 2.01562 21.5 4.5C21.5 6.98438 23.5156 9 26 9C28.4844 9 30.5 6.98438 30.5 4.5ZM12.2844 16.4531C13.2125 15.525 14.4781 15 15.8 15C15.9781 15 16.1562 15.0094 16.325 15.0281L13.4 23.8125C12.5281 26.4375 13.5594 29.325 15.9125 30.7969L23.9937 35.85L21.6125 44.175C21.1531 45.7688 22.0812 47.4281 23.675 47.8875C25.2687 48.3469 26.9281 47.4187 27.3875 45.825L30.0781 36.4125C30.6312 34.4813 29.8344 32.4188 28.1375 31.3594L22.8125 28.0312L25.7094 20.3063L26.1875 21.4594C27.5937 24.8156 30.8656 27 34.5031 27H36.5C38.1594 27 39.5 25.6594 39.5 24C39.5 22.3406 38.1594 21 36.5 21H34.5031C33.2937 21 32.1969 20.2688 31.7375 19.1531L31.1469 17.7469C29.7781 14.4563 27.0125 11.9437 23.6 10.8937L19.0344 9.4875C17.9937 9.16875 16.9062 9 15.8094 9C12.9031 9 10.1094 10.1531 8.05625 12.2156L5.88125 14.3812C4.70937 15.5531 4.70937 17.4562 5.88125 18.6281C7.05312 19.8 8.95625 19.8 10.1281 18.6281L12.2937 16.4625L12.2844 16.4531ZM9.05 33H3.5C1.84062 33 0.5 34.3406 0.5 36C0.5 37.6594 1.84062 39 3.5 39H10.025C11.8062 39 13.4187 37.95 14.1406 36.3281L15.2187 33.9L14.3281 33.3375C12.6875 32.3156 11.4687 30.825 10.775 29.1281L9.05 33Z" fill="#0B0A0C"/>
</svg>
