<svg width="96" height="643" viewBox="0 0 96 643" fill="none" xmlns="http://www.w3.org/2000/svg">
<path d="M49.8144 642.263V638.548H47.9991C23.6668 638.548 3.87278 618.762 3.87278 594.448C3.87278 570.134 23.6668 550.355 47.9991 550.355H49.8144V481.607C75.3084 480.649 95.7559 459.622 95.7559 433.915C95.7559 408.208 75.3084 387.188 49.8144 386.23V319.847H47.9991C23.6668 319.847 3.87278 300.068 3.87278 275.754C3.87278 251.44 23.6668 231.654 47.9991 231.654H49.8144V162.906C75.3084 161.948 95.7559 140.928 95.7559 115.221C95.7559 89.5141 75.3084 68.4869 49.8144 67.5292V2.07516C49.8144 1.07387 49.0011 0.26123 47.9991 0.26123C46.997 0.26123 46.1838 1.07387 46.1838 2.07516V71.1208H47.9991C72.3313 71.1208 92.1253 90.9072 92.1253 115.221C92.1253 139.535 72.3313 159.314 47.9991 159.314H46.1838V228.062C20.6897 229.02 0.242188 250.047 0.242188 275.754C0.242188 301.461 20.6897 322.489 46.1838 323.439V389.822H47.9991C72.3313 389.822 92.1253 409.601 92.1253 433.915C92.1253 458.229 72.3313 478.015 47.9991 478.015H46.1838V546.763C20.6897 547.721 0.242188 568.741 0.242188 594.448C0.242188 620.155 20.6897 641.182 46.1838 642.14V642.263H49.8144Z" fill="#F5F5F5"/>
</svg>
