<svg width="43" height="48" viewBox="0 0 43 48" fill="none" xmlns="http://www.w3.org/2000/svg">
<path d="M24.9361 0C11.4334 0 0.5 10.7464 0.5 24C0.5 37.2536 11.4334 48 24.9361 48C31.5618 48 37.5642 45.4071 41.9703 41.2071C42.517 40.6821 42.6591 39.8679 42.3093 39.2036C41.9594 38.5393 41.205 38.1643 40.4506 38.2929C39.3791 38.475 38.2858 38.5714 37.1596 38.5714C26.5652 38.5714 17.9716 30.1286 17.9716 19.7143C17.9716 12.6643 21.9076 6.525 27.7351 3.28929C28.402 2.91429 28.7409 2.16429 28.5769 1.43571C28.4129 0.707143 27.7788 0.160714 27.0135 0.0964287C26.3247 0.0428573 25.6359 0.0107141 24.9361 0.0107141V0Z" fill="#0B0A0C"/>
</svg>
