<svg width="37" height="48" viewBox="0 0 37 48" fill="none" xmlns="http://www.w3.org/2000/svg">
<path d="M15.1904 0C16.8498 0 18.1904 1.34062 18.1904 3V13.5H12.1904V3C12.1904 1.34062 13.5311 0 15.1904 0ZM3.19043 6C3.19043 4.34062 4.53105 3 6.19043 3C7.8498 3 9.19043 4.34062 9.19043 6V13.5H3.19043V6ZM21.1904 6C21.1904 4.34062 22.5311 3 24.1904 3C25.8498 3 27.1904 4.34062 27.1904 6V15C27.1904 16.6594 25.8498 18 24.1904 18C22.5311 18 21.1904 16.6594 21.1904 15V6ZM30.1904 12C30.1904 10.3406 31.5311 9 33.1904 9C34.8498 9 36.1904 10.3406 36.1904 12V18C36.1904 19.6594 34.8498 21 33.1904 21C31.5311 21 30.1904 19.6594 30.1904 18V12ZM21.1904 20.25V20.1937C22.0717 20.7 23.0936 21 24.1904 21C25.4279 21 26.5717 20.625 27.5279 19.9875C28.3436 22.3219 30.5748 24 33.1904 24C34.2873 24 35.3092 23.7094 36.1904 23.1937V24C36.1904 28.9031 33.8373 33.2625 30.1904 36V45C30.1904 46.6594 28.8498 48 27.1904 48H12.1904C10.5311 48 9.19043 46.6594 9.19043 45V37.65C7.56855 36.9094 6.07793 35.8875 4.79355 34.6031L3.70605 33.5156C1.45605 31.2656 0.19043 28.2094 0.19043 25.0312V22.5C0.19043 19.1906 2.88105 16.5 6.19043 16.5H14.4404C16.5123 16.5 18.1904 18.1781 18.1904 20.25C18.1904 22.3219 16.5123 24 14.4404 24H9.19043C8.36543 24 7.69043 24.675 7.69043 25.5C7.69043 26.325 8.36543 27 9.19043 27H14.4404C18.1717 27 21.1904 23.9813 21.1904 20.25Z" fill="#0B0A0C"/>
</svg>
