<svg width="48" height="43" viewBox="0 0 48 43" fill="none" xmlns="http://www.w3.org/2000/svg">
<path d="M4.4625 25.206L21.4031 41.0216C22.1063 41.6778 23.0344 42.0435 24 42.0435C24.9656 42.0435 25.8938 41.6778 26.5969 41.0216L43.5375 25.206C46.3875 22.5528 48 18.831 48 14.9403V14.3966C48 7.84347 43.2656 2.25597 36.8063 1.17785C32.5312 0.465346 28.1812 1.86222 25.125 4.91847L24 6.04347L22.875 4.91847C19.8188 1.86222 15.4688 0.465346 11.1938 1.17785C4.73438 2.25597 0 7.84347 0 14.3966V14.9403C0 18.831 1.6125 22.5528 4.4625 25.206Z" fill="#0B0A0C"/>
</svg>
